<svg data-v-423bf9ae="" xmlns="http://www.w3.org/2000/svg" viewBox="0 0 444 90" class="iconLeft"><!----><!----><!----><g data-v-423bf9ae="" id="779b0030-85d1-4451-9d25-d7e43cdcca31" fill="black" transform="matrix(4.597701082226675,0,0,4.597701082226675,105.6781658576513,14.770114262233669)"><path d="M9.52 5.30L9.52 5.30Q9.52 6.51 9.16 7.42Q8.80 8.33 8.17 8.95Q7.54 9.56 6.68 9.88Q5.82 10.19 4.83 10.19L4.83 10.19L0.94 10.19L0.94 0.56L4.42 0.56Q5.54 0.56 6.48 0.84Q7.42 1.12 8.09 1.70Q8.77 2.28 9.15 3.18Q9.52 4.07 9.52 5.30ZM7.49 5.30L7.49 5.30Q7.49 4.46 7.26 3.86Q7.03 3.26 6.62 2.87Q6.21 2.49 5.64 2.30Q5.07 2.12 4.38 2.12L4.38 2.12L2.95 2.12L2.95 8.63L4.66 8.63Q5.27 8.63 5.79 8.42Q6.30 8.21 6.68 7.79Q7.06 7.37 7.28 6.75Q7.49 6.13 7.49 5.30ZM13.01 10.19L11.09 10.19L11.09 4.53Q11.09 4.29 11.08 4.03Q11.08 3.76 11.07 3.52Q11.06 3.27 11.05 3.08Q11.05 2.88 11.03 2.80L11.03 2.80L12.87 2.80Q12.88 2.88 12.89 3.08Q12.91 3.28 12.92 3.52Q12.93 3.76 12.94 4.00Q12.95 4.23 12.95 4.38L12.95 4.38L12.98 4.38Q13.13 3.97 13.27 3.65Q13.41 3.34 13.61 3.11Q13.80 2.89 14.08 2.77Q14.35 2.65 14.75 2.65L14.75 2.65Q14.92 2.65 15.09 2.68Q15.26 2.71 15.35 2.75L15.35 2.75L15.35 4.36Q15.16 4.32 14.97 4.29Q14.79 4.26 14.53 4.26L14.53 4.26Q13.81 4.26 13.41 4.84Q13.01 5.42 13.01 6.56L13.01 6.56L13.01 10.19ZM18.25 10.33L18.25 10.33Q17.71 10.33 17.29 10.18Q16.87 10.04 16.58 9.75Q16.28 9.47 16.13 9.05Q15.97 8.63 15.97 8.10L15.97 8.10Q15.97 7.44 16.20 7.00Q16.43 6.55 16.82 6.27Q17.22 6.00 17.75 5.87Q18.29 5.74 18.89 5.74L18.89 5.74L20.48 5.71L20.48 5.33Q20.48 4.93 20.41 4.66Q20.34 4.39 20.20 4.22Q20.06 4.05 19.86 3.98Q19.66 3.90 19.40 3.90L19.40 3.90Q19.16 3.90 18.97 3.95Q18.79 4.00 18.65 4.12Q18.51 4.24 18.43 4.44Q18.34 4.64 18.31 4.95L18.31 4.95L16.30 4.85Q16.39 4.37 16.60 3.97Q16.82 3.57 17.21 3.27Q17.60 2.98 18.16 2.82Q18.72 2.66 19.48 2.66L19.48 2.66Q20.17 2.66 20.71 2.83Q21.25 3.00 21.63 3.34Q22.00 3.68 22.20 4.17Q22.40 4.66 22.40 5.31L22.40 5.31L22.40 8.00Q22.40 8.26 22.43 8.47Q22.45 8.67 22.51 8.81Q22.58 8.96 22.70 9.03Q22.82 9.10 23.01 9.10L23.01 9.10Q23.23 9.10 23.43 9.06L23.43 9.06L23.43 10.10Q23.26 10.14 23.13 10.17Q22.99 10.21 22.85 10.23Q22.72 10.25 22.56 10.26Q22.41 10.27 22.20 10.27L22.20 10.27Q21.48 10.27 21.13 9.92Q20.79 9.56 20.72 8.87L20.72 8.87L20.68 8.87Q20.30 9.56 19.70 9.95Q19.10 10.33 18.25 10.33ZM20.48 7.14L20.48 6.77L19.50 6.78Q19.19 6.79 18.91 6.83Q18.63 6.87 18.43 6.99Q18.22 7.11 18.09 7.33Q17.97 7.56 17.97 7.95L17.97 7.95Q17.97 8.48 18.21 8.73Q18.46 8.99 18.86 8.99L18.86 8.99Q19.23 8.99 19.53 8.83Q19.83 8.67 20.04 8.42Q20.25 8.16 20.36 7.83Q20.48 7.49 20.48 7.14L20.48 7.14ZM28.03 4.09L26.58 4.09L26.58 10.19L24.66 10.19L24.66 4.09L23.58 4.09L23.58 2.80L24.66 2.80L24.66 2.02Q24.66 1.60 24.77 1.24Q24.87 0.88 25.12 0.62Q25.36 0.35 25.78 0.20Q26.20 0.05 26.82 0.05L26.82 0.05Q27.15 0.05 27.46 0.08Q27.78 0.12 28.03 0.16L28.03 0.16L28.03 1.39Q27.91 1.37 27.76 1.35Q27.60 1.33 27.47 1.33L27.47 1.33Q27.21 1.33 27.03 1.39Q26.86 1.44 26.76 1.55Q26.66 1.66 26.62 1.83Q26.58 2.00 26.58 2.21L26.58 2.21L26.58 2.80L28.03 2.80L28.03 4.09ZM30.88 10.32L30.88 10.32Q30.03 10.32 29.57 9.85Q29.11 9.39 29.11 8.46L29.11 8.46L29.11 4.09L28.18 4.09L28.18 2.80L29.21 2.80L29.81 1.06L31.01 1.06L31.01 2.80L32.42 2.80L32.42 4.09L31.01 4.09L31.01 7.94Q31.01 8.48 31.22 8.73Q31.42 8.99 31.86 8.99L31.86 8.99Q32.03 8.99 32.18 8.96Q32.32 8.93 32.50 8.89L32.50 8.89L32.50 10.08Q32.14 10.20 31.75 10.26Q31.35 10.32 30.88 10.32ZM41.46 7.42L41.46 7.42Q41.46 8.07 41.22 8.61Q40.98 9.15 40.48 9.53Q39.98 9.91 39.19 10.12Q38.41 10.33 37.33 10.33L37.33 10.33Q36.37 10.33 35.64 10.16Q34.91 9.99 34.39 9.65Q33.87 9.32 33.54 8.82Q33.22 8.33 33.07 7.68L33.07 7.68L35.02 7.36Q35.10 7.68 35.26 7.95Q35.42 8.22 35.69 8.41Q35.97 8.61 36.38 8.71Q36.80 8.82 37.39 8.82L37.39 8.82Q38.41 8.82 38.95 8.51Q39.50 8.20 39.50 7.53L39.50 7.53Q39.50 7.14 39.28 6.88Q39.06 6.63 38.70 6.47Q38.34 6.30 37.86 6.19Q37.39 6.08 36.88 5.98L36.88 5.98Q36.47 5.89 36.06 5.78Q35.65 5.68 35.28 5.54Q34.90 5.39 34.58 5.20Q34.26 5.00 34.03 4.71Q33.79 4.42 33.66 4.03Q33.52 3.64 33.52 3.11L33.52 3.11Q33.52 2.39 33.81 1.88Q34.10 1.37 34.61 1.04Q35.12 0.72 35.82 0.57Q36.52 0.42 37.36 0.42L37.36 0.42Q38.30 0.42 38.98 0.56Q39.65 0.71 40.10 1.01Q40.56 1.31 40.82 1.77Q41.08 2.22 41.21 2.83L41.21 2.83L39.25 3.10Q39.10 2.47 38.64 2.16Q38.18 1.85 37.32 1.85L37.32 1.85Q36.78 1.85 36.43 1.94Q36.08 2.03 35.87 2.19Q35.66 2.34 35.57 2.55Q35.49 2.76 35.49 2.99L35.49 2.99Q35.49 3.35 35.66 3.58Q35.83 3.81 36.13 3.96Q36.44 4.12 36.87 4.22Q37.30 4.33 37.81 4.44L37.81 4.44Q38.26 4.53 38.71 4.64Q39.15 4.74 39.55 4.89Q39.96 5.03 40.30 5.24Q40.65 5.44 40.91 5.74Q41.17 6.04 41.31 6.45Q41.46 6.86 41.46 7.42ZM49.98 6.46L49.98 6.46Q49.98 7.30 49.82 8.01Q49.65 8.72 49.30 9.24Q48.95 9.75 48.42 10.04Q47.88 10.33 47.15 10.33L47.15 10.33Q46.82 10.33 46.49 10.26Q46.17 10.19 45.88 10.04Q45.58 9.88 45.33 9.64Q45.08 9.39 44.91 9.02L44.91 9.02L44.86 9.02Q44.87 9.05 44.88 9.19Q44.88 9.32 44.89 9.51Q44.90 9.69 44.90 9.89Q44.91 10.09 44.91 10.26L44.91 10.26L44.91 13.10L42.98 13.10L42.98 4.50Q42.98 3.93 42.97 3.49Q42.95 3.04 42.93 2.80L42.93 2.80L44.80 2.80Q44.81 2.84 44.83 2.98Q44.84 3.12 44.85 3.29Q44.86 3.47 44.87 3.66Q44.88 3.86 44.88 4.00L44.88 4.00L44.91 4.00Q45.25 3.27 45.86 2.95Q46.47 2.64 47.27 2.64L47.27 2.64Q47.97 2.64 48.49 2.93Q49 3.21 49.33 3.72Q49.66 4.22 49.82 4.93Q49.98 5.63 49.98 6.46ZM47.98 6.46L47.98 6.46Q47.98 5.20 47.60 4.58Q47.22 3.97 46.46 3.97L46.46 3.97Q46.17 3.97 45.89 4.09Q45.60 4.21 45.38 4.50Q45.16 4.79 45.02 5.28Q44.88 5.77 44.88 6.51L44.88 6.51Q44.88 7.24 45.01 7.72Q45.15 8.20 45.37 8.49Q45.60 8.78 45.88 8.90Q46.16 9.02 46.44 9.02L46.44 9.02Q46.81 9.02 47.10 8.87Q47.39 8.72 47.58 8.41Q47.78 8.10 47.88 7.62Q47.98 7.13 47.98 6.46ZM53.25 10.33L53.25 10.33Q52.71 10.33 52.29 10.18Q51.87 10.04 51.58 9.75Q51.28 9.47 51.13 9.05Q50.97 8.63 50.97 8.10L50.97 8.10Q50.97 7.44 51.20 7.00Q51.43 6.55 51.82 6.27Q52.22 6.00 52.75 5.87Q53.29 5.74 53.89 5.74L53.89 5.74L55.48 5.71L55.48 5.33Q55.48 4.93 55.41 4.66Q55.34 4.39 55.20 4.22Q55.06 4.05 54.86 3.98Q54.66 3.90 54.40 3.90L54.40 3.90Q54.16 3.90 53.97 3.95Q53.79 4.00 53.65 4.12Q53.51 4.24 53.43 4.44Q53.34 4.64 53.31 4.95L53.31 4.95L51.30 4.85Q51.39 4.37 51.60 3.97Q51.82 3.57 52.21 3.27Q52.60 2.98 53.16 2.82Q53.72 2.66 54.48 2.66L54.48 2.66Q55.17 2.66 55.71 2.83Q56.25 3.00 56.63 3.34Q57.00 3.68 57.20 4.17Q57.40 4.66 57.40 5.31L57.40 5.31L57.40 8.00Q57.40 8.26 57.43 8.47Q57.45 8.67 57.51 8.81Q57.58 8.96 57.70 9.03Q57.82 9.10 58.01 9.10L58.01 9.10Q58.23 9.10 58.43 9.06L58.43 9.06L58.43 10.10Q58.26 10.14 58.13 10.17Q57.99 10.21 57.85 10.23Q57.72 10.25 57.56 10.26Q57.41 10.27 57.20 10.27L57.20 10.27Q56.48 10.27 56.13 9.92Q55.79 9.56 55.72 8.87L55.72 8.87L55.68 8.87Q55.30 9.56 54.70 9.95Q54.10 10.33 53.25 10.33ZM55.48 7.14L55.48 6.77L54.50 6.78Q54.19 6.79 53.91 6.83Q53.63 6.87 53.43 6.99Q53.22 7.11 53.09 7.33Q52.97 7.56 52.97 7.95L52.97 7.95Q52.97 8.48 53.21 8.73Q53.46 8.99 53.86 8.99L53.86 8.99Q54.23 8.99 54.53 8.83Q54.83 8.67 55.04 8.42Q55.25 8.16 55.36 7.83Q55.48 7.49 55.48 7.14L55.48 7.14ZM62.41 10.33L62.41 10.33Q61.52 10.33 60.86 10.06Q60.20 9.78 59.77 9.28Q59.33 8.78 59.11 8.08Q58.89 7.38 58.89 6.54L58.89 6.54Q58.89 5.61 59.13 4.89Q59.37 4.17 59.82 3.67Q60.27 3.18 60.93 2.92Q61.59 2.66 62.43 2.66L62.43 2.66Q63.15 2.66 63.71 2.85Q64.26 3.04 64.67 3.37Q65.07 3.71 65.32 4.16Q65.57 4.61 65.67 5.13L65.67 5.13L63.73 5.22Q63.65 4.66 63.32 4.32Q62.99 3.98 62.39 3.98L62.39 3.98Q61.62 3.98 61.26 4.61Q60.91 5.25 60.91 6.46L60.91 6.46Q60.91 9.02 62.42 9.02L62.42 9.02Q62.97 9.02 63.33 8.67Q63.70 8.33 63.79 7.64L63.79 7.64L65.72 7.73Q65.65 8.24 65.41 8.71Q65.17 9.18 64.75 9.54Q64.34 9.90 63.75 10.11Q63.16 10.33 62.41 10.33ZM70.14 10.33L70.14 10.33Q69.34 10.33 68.70 10.09Q68.06 9.86 67.61 9.38Q67.16 8.89 66.92 8.17Q66.68 7.44 66.68 6.46L66.68 6.46Q66.68 5.40 66.96 4.68Q67.25 3.95 67.73 3.50Q68.21 3.06 68.84 2.86Q69.47 2.66 70.16 2.66L70.16 2.66Q71.04 2.66 71.66 2.96Q72.28 3.27 72.67 3.81Q73.07 4.36 73.25 5.12Q73.44 5.89 73.44 6.81L73.44 6.81L73.44 6.86L68.69 6.86Q68.69 7.33 68.78 7.73Q68.86 8.13 69.04 8.42Q69.23 8.71 69.52 8.88Q69.82 9.04 70.23 9.04L70.23 9.04Q70.74 9.04 71.06 8.83Q71.38 8.61 71.52 8.16L71.52 8.16L73.33 8.32Q73.21 8.63 72.98 8.99Q72.76 9.34 72.39 9.64Q72.02 9.94 71.47 10.13Q70.92 10.33 70.14 10.33ZM70.14 3.87L70.14 3.87Q69.84 3.87 69.59 3.97Q69.33 4.07 69.14 4.28Q68.95 4.50 68.84 4.84Q68.72 5.18 68.71 5.66L68.71 5.66L71.58 5.66Q71.52 4.76 71.15 4.32Q70.77 3.87 70.14 3.87Z"></path></g><!----><g data-v-423bf9ae="" id="85816b7b-4a97-4d51-896d-121f7f9913b7" transform="matrix(2.8125,0,0,2.8125,0,0)" stroke="none" fill="black"><path d="M32 0H0v32h32V0zm-8.677 20.802l-2.52 2.52L16 28.125l-2.52-2.52 4.802-4.802L16 18.52l-4.802 4.802-2.52-2.52L13.48 16l-2.282-2.282-4.803 4.802L3.875 16l4.802-4.802 2.52-2.52L16 3.875l2.52 2.52-4.802 4.802L16 13.48l4.802-4.802 2.52 2.52L18.52 16l2.282 2.282 4.802-4.802 2.52 2.52-4.801 4.802z"></path></g><!----></svg>